<?xml version="1.0" standalone="no"?><!DOCTYPE svg PUBLIC "-//W3C//DTD SVG 1.1//EN" "http://www.w3.org/Graphics/SVG/1.1/DTD/svg11.dtd"><svg t="1732180789336" class="icon" viewBox="0 0 1024 1024" version="1.1" xmlns="http://www.w3.org/2000/svg" p-id="3359" data-spm-anchor-id="a313x.search_index.0.i0.2d433a81T5Icrc" xmlns:xlink="http://www.w3.org/1999/xlink" width="200" height="200"><path d="M98.75 796.96c-4.36 0-8.77-0.84-12.98-2.58-12.79-5.27-21.05-17.61-21.05-31.44V189.47c0-34.16 27.79-61.96 61.96-61.96h644.09c34.16 0 61.96 27.79 61.96 61.96v452.08c0 34.16-27.79 61.96-61.96 61.96h-565.3l-82.6 83.36c-6.54 6.59-15.24 10.09-24.12 10.09z m29.97-605.45v498.53l38.33-38.69c7.45-7.53 17.81-11.85 28.41-11.85h573.25v-448H128.72z" p-id="3360" fill="#707070"></path><path d="M927.76 903.4c-8.88 0-17.57-3.49-24.1-10.08l-82.61-83.37H318.76c-34.16 0-61.96-27.79-61.96-61.96v-92.08h64v90.04h510.25c10.6 0 20.95 4.32 28.41 11.84l38.33 38.69V297.95H778.76v-64h121.08c34.16 0 61.96 27.79 61.96 61.96v573.48c0 13.83-8.26 26.17-21.06 31.44a34.092 34.092 0 0 1-12.98 2.57z" p-id="3361" fill="#707070"></path><path d="M319.56 442.74l-14.86-26.82c54.93-19.39 100.48-43.62 137.31-72.69h20.03c40.71 31.66 87.23 56.54 139.9 74.63l-14.86 26.49c-21-7.75-40.39-16.48-58.48-26.17v13.25H376.75v-14.54a673.084 673.084 0 0 1-57.19 25.85z m11.63-85.94L305.35 340c20.03-24.55 34.57-50.73 43.29-78.51l29.08 6.14c-2.58 7.43-5.17 14.54-7.75 21.32h81.74v27.79h-40.06c4.85 8.72 9.05 16.8 12.28 24.56l-27.79 10.02c-4.52-11.95-10.02-23.59-15.83-34.57h-22.94c-7.76 14.52-16.48 27.77-26.18 40.05z m221.32 205.16h-29.4v-12.28H381.6v12.28h-29.4V455.99h200.32v105.97z m-29.4-40.06v-38.12H381.6v38.12h141.51z m-71.08-155.41c-14.86 12.92-31.66 25.2-50.4 36.51h100.8c-18.41-11.31-35.21-23.59-50.4-36.51z m21.65-22.94l-25.2-16.15c16.15-20.03 27.79-42 34.89-65.59l29.4 6.14c-2.58 7.43-5.17 14.54-7.75 21h93.05v27.79h-47.82c6.46 10.66 11.95 20.68 16.15 30.05l-27.46 10.02c-5.82-13.57-12.6-27.14-19.71-40.06h-27.46c-5.81 9.35-11.63 18.4-18.09 26.8z" p-id="3362" fill="#707070"></path></svg>