<?xml version="1.0" standalone="no"?><!DOCTYPE svg PUBLIC "-//W3C//DTD SVG 1.1//EN" "http://www.w3.org/Graphics/SVG/1.1/DTD/svg11.dtd"><svg t="1732358667778" class="icon" viewBox="0 0 1057 1024" version="1.1" xmlns="http://www.w3.org/2000/svg" p-id="5440" xmlns:xlink="http://www.w3.org/1999/xlink" width="206.4453125" height="200"><path d="M528.6093 655.466595a109.481077 109.481077 0 0 1-99.061864-155.653531l57.014783 26.444704a46.331123 46.331123 0 1 0 88.325314 19.621971 45.960897 45.960897 0 0 0-3.649369-18.246846l57.596567-25.386917a109.375299 109.375299 0 0 1-100.013874 153.379288z m-107.629948-110.168639a484.255432 484.255432 0 0 0-345.367844 442.472799 37.763038 37.763038 0 0 1-37.710149 36.123466h-1.692461a37.763038 37.763038 0 0 1-36.176356-39.296831 559.781509 559.781509 0 0 1 399.315041-511.705036 37.768327 37.768327 0 0 1 21.52599 72.405602z m599.818791 478.649155h-1.692461a37.710149 37.710149 0 0 1-37.657259-36.123467 484.308322 484.308322 0 0 0-344.468723-442.314131 37.763038 37.763038 0 0 1 21.684657-72.352712 559.993067 559.993067 0 0 1 398.204364 511.3877 37.763038 37.763038 0 0 1-36.070578 39.34972z m-492.188843-459.291631a282.323667 282.323667 0 1 1 282.05922-282.323668 282.482336 282.482336 0 0 1-282.05922 282.323668z m0-489.01548a206.744701 206.744701 0 1 0 206.586033 206.744702 206.903369 206.903369 0 0 0-206.586033-206.691812z m117.202931 771.656483l-84.623055 114.029567a40.619066 40.619066 0 0 1-65.212642 0l-84.623055-113.976677a40.724845 40.724845 0 0 1-6.505397-35.330126l61.721941-217.692809h125.823904l60.08237 217.957256a40.195951 40.195951 0 0 1-6.558287 35.012789z m-101.441887-189.978758h-30.199853l-45.749339 161.20692 60.188148 81.026575 60.188148-81.026575-44.427104-161.20692z" fill="#2c2c2c" p-id="5441"></path></svg>