<?xml version="1.0" standalone="no"?><!DOCTYPE svg PUBLIC "-//W3C//DTD SVG 1.1//EN" "http://www.w3.org/Graphics/SVG/1.1/DTD/svg11.dtd"><svg t="1732357001435" class="icon" viewBox="0 0 1066 1024" version="1.1" xmlns="http://www.w3.org/2000/svg" p-id="20674" xmlns:xlink="http://www.w3.org/1999/xlink" width="208.203125" height="200"><path d="M927.445333 225.621333l-384-128a32 32 0 0 0-20.224 0l-384 128A32 32 0 0 0 117.333333 256v320a32 32 0 0 0 64 0V300.373333L315.733333 345.173333a256 256 0 0 0 82.56 352.170667c-72.021333 28.245333-134.229333 79.36-179.754666 149.162667a32 32 0 1 0 53.589333 34.986666c60.288-92.501333 155.477333-145.493333 261.205333-145.493333 105.728 0 200.96 52.992 261.205334 145.493333a32 32 0 0 0 53.589333-34.986666c-45.525333-69.845333-107.989333-120.917333-179.754667-149.162667a256 256 0 0 0 82.602667-352l176.469333-58.794667a32 32 0 0 0 0-60.714666v-0.213334zM725.333333 480a192 192 0 1 1-346.581333-113.792l144.469333 48a32 32 0 0 0 20.224 0l144.469334-48A191.573333 191.573333 0 0 1 725.333333 480z m-192-129.706667L250.538667 256 533.333333 161.706667 816.128 256 533.333333 350.293333z" p-id="20675" fill="#515151"></path></svg>