<?xml version="1.0" standalone="no"?><!DOCTYPE svg PUBLIC "-//W3C//DTD SVG 1.1//EN" "http://www.w3.org/Graphics/SVG/1.1/DTD/svg11.dtd"><svg t="1731231339519" class="icon" viewBox="0 0 1024 1024" version="1.1" xmlns="http://www.w3.org/2000/svg" p-id="1300" xmlns:xlink="http://www.w3.org/1999/xlink" width="200" height="200"><path d="M645.8368 533.4016a250.368 250.368 0 1 0-267.6736 0A411.4432 411.4432 0 0 0 101.2224 921.6a30.72 30.72 0 0 0 61.44 0 349.3376 349.3376 0 0 1 698.624 0 30.72 30.72 0 0 0 61.44 0 411.4432 411.4432 0 0 0-276.8896-388.1984z m-322.56-211.4048A188.928 188.928 0 1 1 512 510.9248a189.1328 189.1328 0 0 1-188.928-188.928z" fill="#2c2c2c" p-id="1301"></path><path d="M512 656.896a35.84 35.84 0 0 0-35.84 35.84v164.1984a35.84 35.84 0 0 0 71.68 0V692.736a35.84 35.84 0 0 0-35.84-35.84z" fill="#2c2c2c" p-id="1302"></path></svg>